<mxfile host="app.diagrams.net" agent="Mozilla/5.0 (Windows NT 10.0; Win64; x64) AppleWebKit/537.36 (KHTML, like Gecko) Chrome/134.0.0.0 Safari/537.36 Edg/134.0.0.0" version="26.1.0">
  <diagram name="第 1 页" id="mvzfswOysQl_XIoGp-YG">
    <mxGraphModel dx="1461" dy="625" grid="1" gridSize="10" guides="1" tooltips="1" connect="1" arrows="1" fold="1" page="1" pageScale="1" pageWidth="827" pageHeight="1169" math="0" shadow="0">
      <root>
        <mxCell id="0" />
        <mxCell id="1" parent="0" />
        <mxCell id="xpc04E45yvnxb6xh7-G--1" value="全书框架与核心理论" style="whiteSpace=wrap;strokeWidth=2;" vertex="1" parent="1">
          <mxGeometry x="2631" y="20" width="204" height="54" as="geometry" />
        </mxCell>
        <mxCell id="xpc04E45yvnxb6xh7-G--2" value="导论篇" style="whiteSpace=wrap;strokeWidth=2;" vertex="1" parent="1">
          <mxGeometry x="871" y="160" width="108" height="54" as="geometry" />
        </mxCell>
        <mxCell id="xpc04E45yvnxb6xh7-G--3" value="制度基础篇" style="whiteSpace=wrap;strokeWidth=2;" vertex="1" parent="1">
          <mxGeometry x="1728" y="160" width="140" height="54" as="geometry" />
        </mxCell>
        <mxCell id="xpc04E45yvnxb6xh7-G--4" value="制度体系篇" style="whiteSpace=wrap;strokeWidth=2;" vertex="1" parent="1">
          <mxGeometry x="2658" y="160" width="140" height="54" as="geometry" />
        </mxCell>
        <mxCell id="xpc04E45yvnxb6xh7-G--5" value="制度变迁篇" style="whiteSpace=wrap;strokeWidth=2;" vertex="1" parent="1">
          <mxGeometry x="3568" y="160" width="140" height="54" as="geometry" />
        </mxCell>
        <mxCell id="xpc04E45yvnxb6xh7-G--6" value="第1章 新制度经济学概述" style="whiteSpace=wrap;strokeWidth=2;" vertex="1" parent="1">
          <mxGeometry x="667" y="312" width="233" height="54" as="geometry" />
        </mxCell>
        <mxCell id="xpc04E45yvnxb6xh7-G--7" value="第2章 方法论与十大问题" style="whiteSpace=wrap;strokeWidth=2;" vertex="1" parent="1">
          <mxGeometry x="950" y="312" width="233" height="54" as="geometry" />
        </mxCell>
        <mxCell id="xpc04E45yvnxb6xh7-G--8" value="研究对象：制度对经济行为和经济发展的影响" style="whiteSpace=wrap;strokeWidth=2;" vertex="1" parent="1">
          <mxGeometry x="653" y="428" width="260" height="78" as="geometry" />
        </mxCell>
        <mxCell id="xpc04E45yvnxb6xh7-G--9" value="十大核心问题" style="whiteSpace=wrap;strokeWidth=2;" vertex="1" parent="1">
          <mxGeometry x="989" y="440" width="156" height="54" as="geometry" />
        </mxCell>
        <mxCell id="xpc04E45yvnxb6xh7-G--10" value="1. 制度是约束行为的规则（正式/非正式制度）" style="whiteSpace=wrap;strokeWidth=2;" vertex="1" parent="1">
          <mxGeometry x="20" y="556" width="260" height="78" as="geometry" />
        </mxCell>
        <mxCell id="xpc04E45yvnxb6xh7-G--11" value="2. 制度如何兴起并影响经济增长" style="whiteSpace=wrap;strokeWidth=2;" vertex="1" parent="1">
          <mxGeometry x="330" y="556" width="260" height="78" as="geometry" />
        </mxCell>
        <mxCell id="xpc04E45yvnxb6xh7-G--12" value="3. 交易成本为正时法律的重要性（科斯定理）" style="whiteSpace=wrap;strokeWidth=2;" vertex="1" parent="1">
          <mxGeometry x="640" y="556" width="260" height="78" as="geometry" />
        </mxCell>
        <mxCell id="xpc04E45yvnxb6xh7-G--13" value="4. 比较制度分析（交易成本为核心）" style="whiteSpace=wrap;strokeWidth=2;" vertex="1" parent="1">
          <mxGeometry x="950" y="556" width="260" height="78" as="geometry" />
        </mxCell>
        <mxCell id="xpc04E45yvnxb6xh7-G--14" value="5. 企业的存在是为了节省交易成本" style="whiteSpace=wrap;strokeWidth=2;" vertex="1" parent="1">
          <mxGeometry x="1260" y="556" width="260" height="78" as="geometry" />
        </mxCell>
        <mxCell id="xpc04E45yvnxb6xh7-G--15" value="6. 人类行为理论（机会主义、有限理性）与交易成本的互动" style="whiteSpace=wrap;strokeWidth=2;" vertex="1" parent="1">
          <mxGeometry x="1570" y="556" width="260" height="78" as="geometry" />
        </mxCell>
        <mxCell id="xpc04E45yvnxb6xh7-G--16" value="7. 产权明晰是市场交易的前提" style="whiteSpace=wrap;strokeWidth=2;" vertex="1" parent="1">
          <mxGeometry x="1880" y="556" width="260" height="78" as="geometry" />
        </mxCell>
        <mxCell id="xpc04E45yvnxb6xh7-G--17" value="8. 私有制与掠夺制度的区别" style="whiteSpace=wrap;strokeWidth=2;" vertex="1" parent="1">
          <mxGeometry x="2190" y="556" width="260" height="78" as="geometry" />
        </mxCell>
        <mxCell id="xpc04E45yvnxb6xh7-G--18" value="9. 制度变迁的路径依赖" style="whiteSpace=wrap;strokeWidth=2;" vertex="1" parent="1">
          <mxGeometry x="2500" y="556" width="260" height="78" as="geometry" />
        </mxCell>
        <mxCell id="xpc04E45yvnxb6xh7-G--19" value="10. 诺思悖论（国家作用的两面性）" style="whiteSpace=wrap;strokeWidth=2;" vertex="1" parent="1">
          <mxGeometry x="2810" y="556" width="260" height="78" as="geometry" />
        </mxCell>
        <mxCell id="xpc04E45yvnxb6xh7-G--20" value="第4-11章 核心理论" style="whiteSpace=wrap;strokeWidth=2;" vertex="1" parent="1">
          <mxGeometry x="1702" y="312" width="192" height="54" as="geometry" />
        </mxCell>
        <mxCell id="xpc04E45yvnxb6xh7-G--21" value="交易成本理论：威廉姆森的交易成本决定因素" style="whiteSpace=wrap;strokeWidth=2;" vertex="1" parent="1">
          <mxGeometry x="1197" y="428" width="260" height="78" as="geometry" />
        </mxCell>
        <mxCell id="xpc04E45yvnxb6xh7-G--22" value="产权理论：科斯定理的两个层次" style="whiteSpace=wrap;strokeWidth=2;" vertex="1" parent="1">
          <mxGeometry x="1507" y="428" width="260" height="78" as="geometry" />
        </mxCell>
        <mxCell id="xpc04E45yvnxb6xh7-G--23" value="企业理论：企业的本质是降低交易成本" style="whiteSpace=wrap;strokeWidth=2;" vertex="1" parent="1">
          <mxGeometry x="1817" y="428" width="260" height="78" as="geometry" />
        </mxCell>
        <mxCell id="xpc04E45yvnxb6xh7-G--24" value="契约理论：不完全契约与机会主义行为的关系" style="whiteSpace=wrap;strokeWidth=2;" vertex="1" parent="1">
          <mxGeometry x="2127" y="428" width="260" height="78" as="geometry" />
        </mxCell>
        <mxCell id="xpc04E45yvnxb6xh7-G--25" value="第12-15章 制度结构与国家理论" style="whiteSpace=wrap;strokeWidth=2;" vertex="1" parent="1">
          <mxGeometry x="2598" y="300" width="260" height="78" as="geometry" />
        </mxCell>
        <mxCell id="xpc04E45yvnxb6xh7-G--26" value="制度质量：正式与非正式制度的互补性" style="whiteSpace=wrap;strokeWidth=2;" vertex="1" parent="1">
          <mxGeometry x="2437" y="428" width="260" height="78" as="geometry" />
        </mxCell>
        <mxCell id="xpc04E45yvnxb6xh7-G--27" value="国家理论：国家作为产权保护者与租金最大化者的矛盾" style="whiteSpace=wrap;strokeWidth=2;" vertex="1" parent="1">
          <mxGeometry x="2747" y="428" width="260" height="78" as="geometry" />
        </mxCell>
        <mxCell id="xpc04E45yvnxb6xh7-G--28" value="考试重点：制度与市场机制的关系" style="whiteSpace=wrap;strokeWidth=2;" vertex="1" parent="1">
          <mxGeometry x="3057" y="428" width="260" height="78" as="geometry" />
        </mxCell>
        <mxCell id="xpc04E45yvnxb6xh7-G--29" value="第16-20章 动态分析" style="whiteSpace=wrap;strokeWidth=2;" vertex="1" parent="1">
          <mxGeometry x="3538" y="312" width="200" height="54" as="geometry" />
        </mxCell>
        <mxCell id="xpc04E45yvnxb6xh7-G--30" value="制度变迁机制：路径依赖、诱致性变迁与强制性变迁" style="whiteSpace=wrap;strokeWidth=2;" vertex="1" parent="1">
          <mxGeometry x="3367" y="428" width="260" height="78" as="geometry" />
        </mxCell>
        <mxCell id="xpc04E45yvnxb6xh7-G--31" value="技术创新与制度互动" style="whiteSpace=wrap;strokeWidth=2;" vertex="1" parent="1">
          <mxGeometry x="3677" y="440" width="204" height="54" as="geometry" />
        </mxCell>
        <mxCell id="xpc04E45yvnxb6xh7-G--32" value="考试重点：制度变迁的时滞原因" style="whiteSpace=wrap;strokeWidth=2;" vertex="1" parent="1">
          <mxGeometry x="3931" y="428" width="260" height="78" as="geometry" />
        </mxCell>
        <mxCell id="xpc04E45yvnxb6xh7-G--33" value="交易成本理论" style="whiteSpace=wrap;strokeWidth=2;" vertex="1" parent="1">
          <mxGeometry x="4092" y="20" width="156" height="54" as="geometry" />
        </mxCell>
        <mxCell id="xpc04E45yvnxb6xh7-G--34" value="定义：使用价格机制的代价" style="whiteSpace=wrap;strokeWidth=2;" vertex="1" parent="1">
          <mxGeometry x="3758" y="160" width="252" height="54" as="geometry" />
        </mxCell>
        <mxCell id="xpc04E45yvnxb6xh7-G--35" value="威廉姆森的三维度分析" style="whiteSpace=wrap;strokeWidth=2;" vertex="1" parent="1">
          <mxGeometry x="4060" y="160" width="220" height="54" as="geometry" />
        </mxCell>
        <mxCell id="xpc04E45yvnxb6xh7-G--36" value="资产专用性" style="whiteSpace=wrap;strokeWidth=2;" vertex="1" parent="1">
          <mxGeometry x="3944" y="312" width="140" height="54" as="geometry" />
        </mxCell>
        <mxCell id="xpc04E45yvnxb6xh7-G--37" value="不确定性" style="whiteSpace=wrap;strokeWidth=2;" vertex="1" parent="1">
          <mxGeometry x="4199" y="312" width="124" height="54" as="geometry" />
        </mxCell>
        <mxCell id="xpc04E45yvnxb6xh7-G--38" value="交易频率" style="whiteSpace=wrap;strokeWidth=2;" vertex="1" parent="1">
          <mxGeometry x="4373" y="312" width="124" height="54" as="geometry" />
        </mxCell>
        <mxCell id="xpc04E45yvnxb6xh7-G--39" value="科斯定理" style="whiteSpace=wrap;strokeWidth=2;" vertex="1" parent="1">
          <mxGeometry x="4398" y="20" width="124" height="54" as="geometry" />
        </mxCell>
        <mxCell id="xpc04E45yvnxb6xh7-G--40" value="零交易成本下产权无关性 vs. 正交易成本下法律关键性" style="whiteSpace=wrap;strokeWidth=2;" vertex="1" parent="1">
          <mxGeometry x="4330" y="136" width="260" height="102" as="geometry" />
        </mxCell>
        <mxCell id="xpc04E45yvnxb6xh7-G--41" value="产权理论" style="whiteSpace=wrap;strokeWidth=2;" vertex="1" parent="1">
          <mxGeometry x="4708" y="20" width="124" height="54" as="geometry" />
        </mxCell>
        <mxCell id="xpc04E45yvnxb6xh7-G--42" value="产权的分类（私有制、共有制）与功能（降低外部性）" style="whiteSpace=wrap;strokeWidth=2;" vertex="1" parent="1">
          <mxGeometry x="4640" y="148" width="260" height="78" as="geometry" />
        </mxCell>
        <mxCell id="xpc04E45yvnxb6xh7-G--43" value="制度变迁" style="whiteSpace=wrap;strokeWidth=2;" vertex="1" parent="1">
          <mxGeometry x="5328" y="20" width="124" height="54" as="geometry" />
        </mxCell>
        <mxCell id="xpc04E45yvnxb6xh7-G--44" value="路径依赖的成因（报酬递增、学习效应）" style="whiteSpace=wrap;strokeWidth=2;" vertex="1" parent="1">
          <mxGeometry x="4950" y="148" width="260" height="78" as="geometry" />
        </mxCell>
        <mxCell id="xpc04E45yvnxb6xh7-G--45" value="诱致性变迁 vs. 强制性变迁的差异" style="whiteSpace=wrap;strokeWidth=2;" vertex="1" parent="1">
          <mxGeometry x="5260" y="148" width="260" height="78" as="geometry" />
        </mxCell>
        <mxCell id="xpc04E45yvnxb6xh7-G--46" value="诺思悖论" style="whiteSpace=wrap;strokeWidth=2;" vertex="1" parent="1">
          <mxGeometry x="5638" y="20" width="124" height="54" as="geometry" />
        </mxCell>
        <mxCell id="xpc04E45yvnxb6xh7-G--47" value="国家在产权保护与租金最大化间的矛盾" style="whiteSpace=wrap;strokeWidth=2;" vertex="1" parent="1">
          <mxGeometry x="5570" y="148" width="260" height="78" as="geometry" />
        </mxCell>
        <mxCell id="xpc04E45yvnxb6xh7-G--48" value="思维导图标注建议" style="whiteSpace=wrap;strokeWidth=2;" vertex="1" parent="1">
          <mxGeometry x="6381" y="20" width="188" height="54" as="geometry" />
        </mxCell>
        <mxCell id="xpc04E45yvnxb6xh7-G--49" value="重点章节：第5章（交易成本）、第10章（产权）、第17章（博弈分析）、第19章（技术与制度变迁）" style="whiteSpace=wrap;strokeWidth=2;" vertex="1" parent="1">
          <mxGeometry x="5880" y="124" width="260" height="126" as="geometry" />
        </mxCell>
        <mxCell id="xpc04E45yvnxb6xh7-G--50" value="高频理论：科斯定理、制度的功能" style="whiteSpace=wrap;strokeWidth=2;" vertex="1" parent="1">
          <mxGeometry x="6190" y="148" width="260" height="78" as="geometry" />
        </mxCell>
        <mxCell id="xpc04E45yvnxb6xh7-G--51" value="扩展考点：制度本土化问题、制度与可持续发展的关系" style="whiteSpace=wrap;strokeWidth=2;" vertex="1" parent="1">
          <mxGeometry x="6500" y="136" width="260" height="102" as="geometry" />
        </mxCell>
        <mxCell id="xpc04E45yvnxb6xh7-G--52" value="复习建议" style="whiteSpace=wrap;strokeWidth=2;" vertex="1" parent="1">
          <mxGeometry x="7341" y="20" width="124" height="54" as="geometry" />
        </mxCell>
        <mxCell id="xpc04E45yvnxb6xh7-G--53" value="理论联系案例：中石化员工规模与效率" style="whiteSpace=wrap;strokeWidth=2;" vertex="1" parent="1">
          <mxGeometry x="6810" y="148" width="260" height="78" as="geometry" />
        </mxCell>
        <mxCell id="xpc04E45yvnxb6xh7-G--54" value="对比分析：新制度经济学与新古典经济学的假设差异" style="whiteSpace=wrap;strokeWidth=2;" vertex="1" parent="1">
          <mxGeometry x="7120" y="148" width="260" height="78" as="geometry" />
        </mxCell>
        <mxCell id="xpc04E45yvnxb6xh7-G--55" value="关注实证方法：案例研究法" style="whiteSpace=wrap;strokeWidth=2;" vertex="1" parent="1">
          <mxGeometry x="7430" y="160" width="252" height="54" as="geometry" />
        </mxCell>
        <mxCell id="xpc04E45yvnxb6xh7-G--56" value="" style="curved=1;startArrow=none;endArrow=block;exitX=0;exitY=0.55;entryX=0.5;entryY=0;rounded=0;" edge="1" parent="1" source="xpc04E45yvnxb6xh7-G--1" target="xpc04E45yvnxb6xh7-G--2">
          <mxGeometry relative="1" as="geometry">
            <Array as="points">
              <mxPoint x="925" y="99" />
            </Array>
          </mxGeometry>
        </mxCell>
        <mxCell id="xpc04E45yvnxb6xh7-G--57" value="" style="curved=1;startArrow=none;endArrow=block;exitX=0;exitY=0.61;entryX=0.5;entryY=0;rounded=0;" edge="1" parent="1" source="xpc04E45yvnxb6xh7-G--1" target="xpc04E45yvnxb6xh7-G--3">
          <mxGeometry relative="1" as="geometry">
            <Array as="points">
              <mxPoint x="1798" y="99" />
            </Array>
          </mxGeometry>
        </mxCell>
        <mxCell id="xpc04E45yvnxb6xh7-G--58" value="" style="curved=1;startArrow=none;endArrow=block;exitX=0.49;exitY=1;entryX=0.5;entryY=0;rounded=0;" edge="1" parent="1" source="xpc04E45yvnxb6xh7-G--1" target="xpc04E45yvnxb6xh7-G--4">
          <mxGeometry relative="1" as="geometry">
            <Array as="points">
              <mxPoint x="2728" y="99" />
            </Array>
          </mxGeometry>
        </mxCell>
        <mxCell id="xpc04E45yvnxb6xh7-G--59" value="" style="curved=1;startArrow=none;endArrow=block;exitX=1;exitY=0.61;entryX=0.5;entryY=0;rounded=0;" edge="1" parent="1" source="xpc04E45yvnxb6xh7-G--1" target="xpc04E45yvnxb6xh7-G--5">
          <mxGeometry relative="1" as="geometry">
            <Array as="points">
              <mxPoint x="3638" y="99" />
            </Array>
          </mxGeometry>
        </mxCell>
        <mxCell id="xpc04E45yvnxb6xh7-G--60" value="" style="curved=1;startArrow=none;endArrow=block;exitX=0.1;exitY=1;entryX=0.5;entryY=0;rounded=0;" edge="1" parent="1" source="xpc04E45yvnxb6xh7-G--2" target="xpc04E45yvnxb6xh7-G--6">
          <mxGeometry relative="1" as="geometry">
            <Array as="points">
              <mxPoint x="783" y="275" />
            </Array>
          </mxGeometry>
        </mxCell>
        <mxCell id="xpc04E45yvnxb6xh7-G--61" value="" style="curved=1;startArrow=none;endArrow=block;exitX=0.9;exitY=1;entryX=0.5;entryY=0;rounded=0;" edge="1" parent="1" source="xpc04E45yvnxb6xh7-G--2" target="xpc04E45yvnxb6xh7-G--7">
          <mxGeometry relative="1" as="geometry">
            <Array as="points">
              <mxPoint x="1067" y="275" />
            </Array>
          </mxGeometry>
        </mxCell>
        <mxCell id="xpc04E45yvnxb6xh7-G--62" value="" style="curved=1;startArrow=none;endArrow=block;exitX=0.5;exitY=1;entryX=0.5;entryY=0;rounded=0;" edge="1" parent="1" source="xpc04E45yvnxb6xh7-G--6" target="xpc04E45yvnxb6xh7-G--8">
          <mxGeometry relative="1" as="geometry">
            <Array as="points" />
          </mxGeometry>
        </mxCell>
        <mxCell id="xpc04E45yvnxb6xh7-G--63" value="" style="curved=1;startArrow=none;endArrow=block;exitX=0.5;exitY=1;entryX=0.5;entryY=0;rounded=0;" edge="1" parent="1" source="xpc04E45yvnxb6xh7-G--7" target="xpc04E45yvnxb6xh7-G--9">
          <mxGeometry relative="1" as="geometry">
            <Array as="points" />
          </mxGeometry>
        </mxCell>
        <mxCell id="xpc04E45yvnxb6xh7-G--64" value="" style="curved=1;startArrow=none;endArrow=block;exitX=0;exitY=0.6;entryX=0.5;entryY=0;rounded=0;" edge="1" parent="1" source="xpc04E45yvnxb6xh7-G--9" target="xpc04E45yvnxb6xh7-G--10">
          <mxGeometry relative="1" as="geometry">
            <Array as="points">
              <mxPoint x="150" y="531" />
            </Array>
          </mxGeometry>
        </mxCell>
        <mxCell id="xpc04E45yvnxb6xh7-G--65" value="" style="curved=1;startArrow=none;endArrow=block;exitX=0;exitY=0.65;entryX=0.5;entryY=0;rounded=0;" edge="1" parent="1" source="xpc04E45yvnxb6xh7-G--9" target="xpc04E45yvnxb6xh7-G--11">
          <mxGeometry relative="1" as="geometry">
            <Array as="points">
              <mxPoint x="460" y="531" />
            </Array>
          </mxGeometry>
        </mxCell>
        <mxCell id="xpc04E45yvnxb6xh7-G--66" value="" style="curved=1;startArrow=none;endArrow=block;exitX=0;exitY=0.81;entryX=0.5;entryY=0;rounded=0;" edge="1" parent="1" source="xpc04E45yvnxb6xh7-G--9" target="xpc04E45yvnxb6xh7-G--12">
          <mxGeometry relative="1" as="geometry">
            <Array as="points">
              <mxPoint x="770" y="531" />
            </Array>
          </mxGeometry>
        </mxCell>
        <mxCell id="xpc04E45yvnxb6xh7-G--67" value="" style="curved=1;startArrow=none;endArrow=block;exitX=0.53;exitY=1;entryX=0.5;entryY=0;rounded=0;" edge="1" parent="1" source="xpc04E45yvnxb6xh7-G--9" target="xpc04E45yvnxb6xh7-G--13">
          <mxGeometry relative="1" as="geometry">
            <Array as="points">
              <mxPoint x="1080" y="531" />
            </Array>
          </mxGeometry>
        </mxCell>
        <mxCell id="xpc04E45yvnxb6xh7-G--68" value="" style="curved=1;startArrow=none;endArrow=block;exitX=1;exitY=0.79;entryX=0.5;entryY=0;rounded=0;" edge="1" parent="1" source="xpc04E45yvnxb6xh7-G--9" target="xpc04E45yvnxb6xh7-G--14">
          <mxGeometry relative="1" as="geometry">
            <Array as="points">
              <mxPoint x="1390" y="531" />
            </Array>
          </mxGeometry>
        </mxCell>
        <mxCell id="xpc04E45yvnxb6xh7-G--69" value="" style="curved=1;startArrow=none;endArrow=block;exitX=1;exitY=0.65;entryX=0.5;entryY=0;rounded=0;" edge="1" parent="1" source="xpc04E45yvnxb6xh7-G--9" target="xpc04E45yvnxb6xh7-G--15">
          <mxGeometry relative="1" as="geometry">
            <Array as="points">
              <mxPoint x="1700" y="531" />
            </Array>
          </mxGeometry>
        </mxCell>
        <mxCell id="xpc04E45yvnxb6xh7-G--70" value="" style="curved=1;startArrow=none;endArrow=block;exitX=1;exitY=0.6;entryX=0.5;entryY=0;rounded=0;" edge="1" parent="1" source="xpc04E45yvnxb6xh7-G--9" target="xpc04E45yvnxb6xh7-G--16">
          <mxGeometry relative="1" as="geometry">
            <Array as="points">
              <mxPoint x="2010" y="531" />
            </Array>
          </mxGeometry>
        </mxCell>
        <mxCell id="xpc04E45yvnxb6xh7-G--71" value="" style="curved=1;startArrow=none;endArrow=block;exitX=1;exitY=0.57;entryX=0.5;entryY=0;rounded=0;" edge="1" parent="1" source="xpc04E45yvnxb6xh7-G--9" target="xpc04E45yvnxb6xh7-G--17">
          <mxGeometry relative="1" as="geometry">
            <Array as="points">
              <mxPoint x="2320" y="531" />
            </Array>
          </mxGeometry>
        </mxCell>
        <mxCell id="xpc04E45yvnxb6xh7-G--72" value="" style="curved=1;startArrow=none;endArrow=block;exitX=1;exitY=0.56;entryX=0.5;entryY=0;rounded=0;" edge="1" parent="1" source="xpc04E45yvnxb6xh7-G--9" target="xpc04E45yvnxb6xh7-G--18">
          <mxGeometry relative="1" as="geometry">
            <Array as="points">
              <mxPoint x="2630" y="531" />
            </Array>
          </mxGeometry>
        </mxCell>
        <mxCell id="xpc04E45yvnxb6xh7-G--73" value="" style="curved=1;startArrow=none;endArrow=block;exitX=1;exitY=0.55;entryX=0.5;entryY=0;rounded=0;" edge="1" parent="1" source="xpc04E45yvnxb6xh7-G--9" target="xpc04E45yvnxb6xh7-G--19">
          <mxGeometry relative="1" as="geometry">
            <Array as="points">
              <mxPoint x="2940" y="531" />
            </Array>
          </mxGeometry>
        </mxCell>
        <mxCell id="xpc04E45yvnxb6xh7-G--74" value="" style="curved=1;startArrow=none;endArrow=block;exitX=0.5;exitY=1;entryX=0.5;entryY=0;rounded=0;" edge="1" parent="1" source="xpc04E45yvnxb6xh7-G--3" target="xpc04E45yvnxb6xh7-G--20">
          <mxGeometry relative="1" as="geometry">
            <Array as="points" />
          </mxGeometry>
        </mxCell>
        <mxCell id="xpc04E45yvnxb6xh7-G--75" value="" style="curved=1;startArrow=none;endArrow=block;exitX=0;exitY=0.74;entryX=0.5;entryY=0;rounded=0;" edge="1" parent="1" source="xpc04E45yvnxb6xh7-G--20" target="xpc04E45yvnxb6xh7-G--21">
          <mxGeometry relative="1" as="geometry">
            <Array as="points">
              <mxPoint x="1327" y="403" />
            </Array>
          </mxGeometry>
        </mxCell>
        <mxCell id="xpc04E45yvnxb6xh7-G--76" value="" style="curved=1;startArrow=none;endArrow=block;exitX=0.15;exitY=1;entryX=0.5;entryY=0;rounded=0;" edge="1" parent="1" source="xpc04E45yvnxb6xh7-G--20" target="xpc04E45yvnxb6xh7-G--22">
          <mxGeometry relative="1" as="geometry">
            <Array as="points">
              <mxPoint x="1637" y="403" />
            </Array>
          </mxGeometry>
        </mxCell>
        <mxCell id="xpc04E45yvnxb6xh7-G--77" value="" style="curved=1;startArrow=none;endArrow=block;exitX=0.83;exitY=1;entryX=0.5;entryY=0;rounded=0;" edge="1" parent="1" source="xpc04E45yvnxb6xh7-G--20" target="xpc04E45yvnxb6xh7-G--23">
          <mxGeometry relative="1" as="geometry">
            <Array as="points">
              <mxPoint x="1947" y="403" />
            </Array>
          </mxGeometry>
        </mxCell>
        <mxCell id="xpc04E45yvnxb6xh7-G--78" value="" style="curved=1;startArrow=none;endArrow=block;exitX=1;exitY=0.75;entryX=0.5;entryY=0;rounded=0;" edge="1" parent="1" source="xpc04E45yvnxb6xh7-G--20" target="xpc04E45yvnxb6xh7-G--24">
          <mxGeometry relative="1" as="geometry">
            <Array as="points">
              <mxPoint x="2257" y="403" />
            </Array>
          </mxGeometry>
        </mxCell>
        <mxCell id="xpc04E45yvnxb6xh7-G--79" value="" style="curved=1;startArrow=none;endArrow=block;exitX=0.5;exitY=1;entryX=0.5;entryY=0;rounded=0;" edge="1" parent="1" source="xpc04E45yvnxb6xh7-G--4" target="xpc04E45yvnxb6xh7-G--25">
          <mxGeometry relative="1" as="geometry">
            <Array as="points" />
          </mxGeometry>
        </mxCell>
        <mxCell id="xpc04E45yvnxb6xh7-G--80" value="" style="curved=1;startArrow=none;endArrow=block;exitX=0.12;exitY=1;entryX=0.5;entryY=0;rounded=0;" edge="1" parent="1" source="xpc04E45yvnxb6xh7-G--25" target="xpc04E45yvnxb6xh7-G--26">
          <mxGeometry relative="1" as="geometry">
            <Array as="points">
              <mxPoint x="2567" y="403" />
            </Array>
          </mxGeometry>
        </mxCell>
        <mxCell id="xpc04E45yvnxb6xh7-G--81" value="" style="curved=1;startArrow=none;endArrow=block;exitX=0.85;exitY=1;entryX=0.5;entryY=0;rounded=0;" edge="1" parent="1" source="xpc04E45yvnxb6xh7-G--25" target="xpc04E45yvnxb6xh7-G--27">
          <mxGeometry relative="1" as="geometry">
            <Array as="points">
              <mxPoint x="2877" y="403" />
            </Array>
          </mxGeometry>
        </mxCell>
        <mxCell id="xpc04E45yvnxb6xh7-G--82" value="" style="curved=1;startArrow=none;endArrow=block;exitX=1;exitY=0.73;entryX=0.5;entryY=0;rounded=0;" edge="1" parent="1" source="xpc04E45yvnxb6xh7-G--25" target="xpc04E45yvnxb6xh7-G--28">
          <mxGeometry relative="1" as="geometry">
            <Array as="points">
              <mxPoint x="3187" y="403" />
            </Array>
          </mxGeometry>
        </mxCell>
        <mxCell id="xpc04E45yvnxb6xh7-G--83" value="" style="curved=1;startArrow=none;endArrow=block;exitX=0.5;exitY=1;entryX=0.5;entryY=0;rounded=0;" edge="1" parent="1" source="xpc04E45yvnxb6xh7-G--5" target="xpc04E45yvnxb6xh7-G--29">
          <mxGeometry relative="1" as="geometry">
            <Array as="points" />
          </mxGeometry>
        </mxCell>
        <mxCell id="xpc04E45yvnxb6xh7-G--84" value="" style="curved=1;startArrow=none;endArrow=block;exitX=0.2;exitY=1;entryX=0.5;entryY=0;rounded=0;" edge="1" parent="1" source="xpc04E45yvnxb6xh7-G--29" target="xpc04E45yvnxb6xh7-G--30">
          <mxGeometry relative="1" as="geometry">
            <Array as="points">
              <mxPoint x="3497" y="403" />
            </Array>
          </mxGeometry>
        </mxCell>
        <mxCell id="xpc04E45yvnxb6xh7-G--85" value="" style="curved=1;startArrow=none;endArrow=block;exitX=0.8;exitY=1;entryX=0.5;entryY=0;rounded=0;" edge="1" parent="1" source="xpc04E45yvnxb6xh7-G--29" target="xpc04E45yvnxb6xh7-G--31">
          <mxGeometry relative="1" as="geometry">
            <Array as="points">
              <mxPoint x="3779" y="403" />
            </Array>
          </mxGeometry>
        </mxCell>
        <mxCell id="xpc04E45yvnxb6xh7-G--86" value="" style="curved=1;startArrow=none;endArrow=block;exitX=1;exitY=0.78;entryX=0.5;entryY=0;rounded=0;" edge="1" parent="1" source="xpc04E45yvnxb6xh7-G--29" target="xpc04E45yvnxb6xh7-G--32">
          <mxGeometry relative="1" as="geometry">
            <Array as="points">
              <mxPoint x="4061" y="403" />
            </Array>
          </mxGeometry>
        </mxCell>
        <mxCell id="xpc04E45yvnxb6xh7-G--87" value="" style="curved=1;startArrow=none;endArrow=block;exitX=0;exitY=0.76;entryX=0.5;entryY=0;rounded=0;" edge="1" parent="1" source="xpc04E45yvnxb6xh7-G--33" target="xpc04E45yvnxb6xh7-G--34">
          <mxGeometry relative="1" as="geometry">
            <Array as="points">
              <mxPoint x="3884" y="99" />
            </Array>
          </mxGeometry>
        </mxCell>
        <mxCell id="xpc04E45yvnxb6xh7-G--88" value="" style="curved=1;startArrow=none;endArrow=block;exitX=0.5;exitY=1;entryX=0.5;entryY=0;rounded=0;" edge="1" parent="1" source="xpc04E45yvnxb6xh7-G--33" target="xpc04E45yvnxb6xh7-G--35">
          <mxGeometry relative="1" as="geometry">
            <Array as="points" />
          </mxGeometry>
        </mxCell>
        <mxCell id="xpc04E45yvnxb6xh7-G--89" value="" style="curved=1;startArrow=none;endArrow=block;exitX=0.28;exitY=1;entryX=0.5;entryY=0;rounded=0;" edge="1" parent="1" source="xpc04E45yvnxb6xh7-G--35" target="xpc04E45yvnxb6xh7-G--36">
          <mxGeometry relative="1" as="geometry">
            <Array as="points">
              <mxPoint x="4014" y="275" />
            </Array>
          </mxGeometry>
        </mxCell>
        <mxCell id="xpc04E45yvnxb6xh7-G--90" value="" style="curved=1;startArrow=none;endArrow=block;exitX=0.63;exitY=1;entryX=0.5;entryY=0;rounded=0;" edge="1" parent="1" source="xpc04E45yvnxb6xh7-G--35" target="xpc04E45yvnxb6xh7-G--37">
          <mxGeometry relative="1" as="geometry">
            <Array as="points">
              <mxPoint x="4261" y="275" />
            </Array>
          </mxGeometry>
        </mxCell>
        <mxCell id="xpc04E45yvnxb6xh7-G--91" value="" style="curved=1;startArrow=none;endArrow=block;exitX=0.87;exitY=1;entryX=0.5;entryY=0;rounded=0;" edge="1" parent="1" source="xpc04E45yvnxb6xh7-G--35" target="xpc04E45yvnxb6xh7-G--38">
          <mxGeometry relative="1" as="geometry">
            <Array as="points">
              <mxPoint x="4435" y="275" />
            </Array>
          </mxGeometry>
        </mxCell>
        <mxCell id="xpc04E45yvnxb6xh7-G--92" value="" style="curved=1;startArrow=none;endArrow=block;exitX=0.5;exitY=1;entryX=0.5;entryY=0;rounded=0;" edge="1" parent="1" source="xpc04E45yvnxb6xh7-G--39" target="xpc04E45yvnxb6xh7-G--40">
          <mxGeometry relative="1" as="geometry">
            <Array as="points" />
          </mxGeometry>
        </mxCell>
        <mxCell id="xpc04E45yvnxb6xh7-G--93" value="" style="curved=1;startArrow=none;endArrow=block;exitX=0.5;exitY=1;entryX=0.5;entryY=0;rounded=0;" edge="1" parent="1" source="xpc04E45yvnxb6xh7-G--41" target="xpc04E45yvnxb6xh7-G--42">
          <mxGeometry relative="1" as="geometry">
            <Array as="points" />
          </mxGeometry>
        </mxCell>
        <mxCell id="xpc04E45yvnxb6xh7-G--94" value="" style="curved=1;startArrow=none;endArrow=block;exitX=0;exitY=0.69;entryX=0.5;entryY=0;rounded=0;" edge="1" parent="1" source="xpc04E45yvnxb6xh7-G--43" target="xpc04E45yvnxb6xh7-G--44">
          <mxGeometry relative="1" as="geometry">
            <Array as="points">
              <mxPoint x="5080" y="99" />
            </Array>
          </mxGeometry>
        </mxCell>
        <mxCell id="xpc04E45yvnxb6xh7-G--95" value="" style="curved=1;startArrow=none;endArrow=block;exitX=0.5;exitY=1;entryX=0.5;entryY=0;rounded=0;" edge="1" parent="1" source="xpc04E45yvnxb6xh7-G--43" target="xpc04E45yvnxb6xh7-G--45">
          <mxGeometry relative="1" as="geometry">
            <Array as="points" />
          </mxGeometry>
        </mxCell>
        <mxCell id="xpc04E45yvnxb6xh7-G--96" value="" style="curved=1;startArrow=none;endArrow=block;exitX=0.5;exitY=1;entryX=0.5;entryY=0;rounded=0;" edge="1" parent="1" source="xpc04E45yvnxb6xh7-G--46" target="xpc04E45yvnxb6xh7-G--47">
          <mxGeometry relative="1" as="geometry">
            <Array as="points" />
          </mxGeometry>
        </mxCell>
        <mxCell id="xpc04E45yvnxb6xh7-G--97" value="" style="curved=1;startArrow=none;endArrow=block;exitX=0;exitY=0.69;entryX=0.5;entryY=0;rounded=0;" edge="1" parent="1" source="xpc04E45yvnxb6xh7-G--48" target="xpc04E45yvnxb6xh7-G--49">
          <mxGeometry relative="1" as="geometry">
            <Array as="points">
              <mxPoint x="6010" y="99" />
            </Array>
          </mxGeometry>
        </mxCell>
        <mxCell id="xpc04E45yvnxb6xh7-G--98" value="" style="curved=1;startArrow=none;endArrow=block;exitX=0.07;exitY=1;entryX=0.5;entryY=0;rounded=0;" edge="1" parent="1" source="xpc04E45yvnxb6xh7-G--48" target="xpc04E45yvnxb6xh7-G--50">
          <mxGeometry relative="1" as="geometry">
            <Array as="points">
              <mxPoint x="6320" y="99" />
            </Array>
          </mxGeometry>
        </mxCell>
        <mxCell id="xpc04E45yvnxb6xh7-G--99" value="" style="curved=1;startArrow=none;endArrow=block;exitX=0.93;exitY=1;entryX=0.5;entryY=0;rounded=0;" edge="1" parent="1" source="xpc04E45yvnxb6xh7-G--48" target="xpc04E45yvnxb6xh7-G--51">
          <mxGeometry relative="1" as="geometry">
            <Array as="points">
              <mxPoint x="6630" y="99" />
            </Array>
          </mxGeometry>
        </mxCell>
        <mxCell id="xpc04E45yvnxb6xh7-G--100" value="" style="curved=1;startArrow=none;endArrow=block;exitX=0;exitY=0.63;entryX=0.5;entryY=0;rounded=0;" edge="1" parent="1" source="xpc04E45yvnxb6xh7-G--52" target="xpc04E45yvnxb6xh7-G--53">
          <mxGeometry relative="1" as="geometry">
            <Array as="points">
              <mxPoint x="6940" y="99" />
            </Array>
          </mxGeometry>
        </mxCell>
        <mxCell id="xpc04E45yvnxb6xh7-G--101" value="" style="curved=1;startArrow=none;endArrow=block;exitX=0;exitY=0.89;entryX=0.5;entryY=0;rounded=0;" edge="1" parent="1" source="xpc04E45yvnxb6xh7-G--52" target="xpc04E45yvnxb6xh7-G--54">
          <mxGeometry relative="1" as="geometry">
            <Array as="points">
              <mxPoint x="7250" y="99" />
            </Array>
          </mxGeometry>
        </mxCell>
        <mxCell id="xpc04E45yvnxb6xh7-G--102" value="" style="curved=1;startArrow=none;endArrow=block;exitX=1;exitY=0.89;entryX=0.5;entryY=0;rounded=0;" edge="1" parent="1" source="xpc04E45yvnxb6xh7-G--52" target="xpc04E45yvnxb6xh7-G--55">
          <mxGeometry relative="1" as="geometry">
            <Array as="points">
              <mxPoint x="7556" y="99" />
            </Array>
          </mxGeometry>
        </mxCell>
      </root>
    </mxGraphModel>
  </diagram>
</mxfile>
